<svg xmlns="http://www.w3.org/2000/svg" xmlns:xlink="http://www.w3.org/1999/xlink" width="15.778mm" height="15.778mm" viewBox="0 0 15.778 15.778">

	<style xmlns="http://www.w3.org/2000/svg">
		polygon {
			shape-rendering:crispEdges;
			stroke-width:0.041110;
		}
		.base {
			stroke:none;
			fill:#000000;
		}
		.pins {
			fill:#777777;
		}
		.chip {
			fill:#FFFFFF;
		}
	</style>

	<path d="M7.885 5.004 A2.885,2.885 0 0,0 5.000,7.889 A2.885,2.885 0 0,0 7.885,10.774 A2.885,2.885 0 0,0 10.769,7.889 A2.885,2.885 0 0,0 7.885,5.004" class="base"/>
	<path d="M6.985 6.985 L7.585,6.385 L7.585,5.785 L6.985,5.785 L6.985,6.985 M6.985 6.985 L5.785,6.985 L5.785,7.585 L6.385,7.585 L6.985,6.985 M8.785 6.985 L8.785,5.785 L8.185,5.785 L8.185,6.385 L8.785,6.985 M8.785 6.985 L9.385,7.585 L9.985,7.585 L9.985,6.985 L8.785,6.985 M8.785 8.785 L8.185,9.385 L8.185,9.985 L8.785,9.985 L8.785,8.785 M8.785 8.785 L9.985,8.785 L9.985,8.185 L9.385,8.185 L8.785,8.785 M6.985 8.785 L6.985,9.985 L7.585,9.985 L7.585,9.385 L6.985,8.785 M6.985 8.785 L6.385,8.185 L5.785,8.185 L5.785,8.785 L6.985,8.785" class="pins"/>
	<path d="M6.385 7.585 L6.385,8.185 A1.200,1.200 0 0,0 7.585,9.385 L8.185,9.385 A1.200,1.200 0 0,0 9.385,8.185 L9.385,7.585 A1.200,1.200 0 0,0 8.185,6.385 L7.585,6.385 A1.200,1.200 0 0,0 6.385,7.585 M7.585 6.985 L8.185,6.985 A0.600,0.600 0 0,1 8.785,7.585 L8.785,8.185 A0.600,0.600 0 0,1 8.185,8.785 L7.585,8.785 A0.600,0.600 0 0,1 6.985,8.185 L6.985,7.585 A0.600,0.600 0 0,1 7.585,6.985" class="chip"/>

</svg>